<svg width="81" height="39" viewBox="0 0 81 39" fill="none" xmlns="http://www.w3.org/2000/svg">
<path d="M20.7852 35.8477C20.8372 35.9518 20.8633 36.0495 20.8633 36.1406C20.8633 36.3359 20.7526 36.4596 20.5312 36.5117C20.3099 36.5638 20.0495 36.5964 19.75 36.6094C19.4505 36.6094 19.151 36.6094 18.8516 36.6094C18.5521 36.6094 18.3177 36.6484 18.1484 36.7266C18.1224 36.7396 18.0508 36.7721 17.9336 36.8242C17.8164 36.8763 17.6862 36.9349 17.543 37C17.3997 37.0651 17.2695 37.1237 17.1523 37.1758C17.0482 37.2409 16.9961 37.2799 16.9961 37.293H16.957C16.8268 37.293 16.6576 37.2474 16.4492 37.1562C16.2409 37.0651 16.0065 37.0195 15.7461 37.0195C15.5508 37.0195 15.3164 37.0651 15.043 37.1562C14.7826 37.2474 14.5091 37.293 14.2227 37.293C13.9232 37.293 13.6693 37.2279 13.4609 37.0977C13.2656 36.9805 13.168 36.8503 13.168 36.707C13.168 36.4987 13.2852 36.375 13.5195 36.3359C13.7539 36.2969 14.0143 36.2773 14.3008 36.2773H14.6133C14.7826 36.2773 14.9193 36.2839 15.0234 36.2969C15.1406 36.2969 15.2318 36.2708 15.2969 36.2188C15.362 36.1667 15.4076 36.0755 15.4336 35.9453C15.4596 35.8021 15.4727 35.5872 15.4727 35.3008C15.4727 35.0794 15.4661 34.8516 15.4531 34.6172C15.4401 34.3828 15.4206 34.1615 15.3945 33.9531C15.3685 33.7708 15.3164 33.5885 15.2383 33.4062C15.1602 33.224 15.1081 33.0612 15.082 32.918C15.056 32.7617 15.043 32.5729 15.043 32.3516C15.043 32.1172 15.0299 31.8958 15.0039 31.6875C14.9779 31.4661 14.9258 31.2839 14.8477 31.1406C14.7695 30.9844 14.6393 30.9062 14.457 30.9062C14.3529 30.9062 14.2227 30.9193 14.0664 30.9453C13.9102 30.9714 13.7214 30.9974 13.5 31.0234C12.8359 31.0885 12.1719 31.1341 11.5078 31.1602C10.8438 31.1862 10.1406 31.2448 9.39844 31.3359C8.79948 31.4141 8.31771 31.4792 7.95312 31.5312C7.58854 31.5833 7.27604 31.7005 7.01562 31.8828C6.75521 32.0651 6.52083 32.3581 6.3125 32.7617C6.11719 33.1654 5.88932 33.7578 5.62891 34.5391C5.60286 34.6042 5.53125 34.7018 5.41406 34.832C5.3099 34.9622 5.25781 35.1185 5.25781 35.3008C5.25781 35.4961 5.33594 35.6393 5.49219 35.7305C5.64844 35.8216 5.83073 35.8932 6.03906 35.9453C6.26042 35.9844 6.47526 36.0234 6.68359 36.0625C6.90495 36.1016 7.08073 36.1732 7.21094 36.2773C7.21094 36.4857 7.08724 36.6484 6.83984 36.7656C6.59245 36.8828 6.29297 36.974 5.94141 37.0391C5.60286 37.1042 5.2513 37.1497 4.88672 37.1758C4.53516 37.2148 4.24219 37.2539 4.00781 37.293C3.96875 37.306 3.84505 37.332 3.63672 37.3711C3.42839 37.4232 3.18099 37.4753 2.89453 37.5273C2.62109 37.5924 2.32812 37.6445 2.01562 37.6836C1.71615 37.7357 1.44271 37.7617 1.19531 37.7617C0.960938 37.7617 0.778646 37.7357 0.648438 37.6836C0.518229 37.6315 0.453125 37.5339 0.453125 37.3906C0.453125 37.0911 0.544271 36.8828 0.726562 36.7656C0.908854 36.6354 1.11719 36.5508 1.35156 36.5117C1.59896 36.4727 1.83333 36.4596 2.05469 36.4727C2.28906 36.4727 2.45833 36.4531 2.5625 36.4141C2.58854 36.401 2.64062 36.375 2.71875 36.3359C2.79688 36.2839 2.875 36.2318 2.95312 36.1797C3.04427 36.1146 3.1224 36.0495 3.1875 35.9844C3.2526 35.9193 3.28516 35.8672 3.28516 35.8281C3.28516 35.8021 3.27865 35.7695 3.26562 35.7305C3.26562 35.6914 3.26562 35.6589 3.26562 35.6328C3.26562 35.5807 3.3112 35.5156 3.40234 35.4375C3.49349 35.3594 3.59766 35.2812 3.71484 35.2031C3.83203 35.112 3.9362 35.0273 4.02734 34.9492C4.11849 34.8711 4.16406 34.8125 4.16406 34.7734C4.16406 34.7474 4.15755 34.7148 4.14453 34.6758C4.13151 34.6367 4.125 34.6042 4.125 34.5781C4.13802 34.5521 4.14453 34.5391 4.14453 34.5391C4.19661 34.487 4.25521 34.4023 4.32031 34.2852C4.38542 34.1549 4.44401 34.0117 4.49609 33.8555C4.5612 33.6992 4.6263 33.543 4.69141 33.3867C4.75651 33.2174 4.82161 33.0612 4.88672 32.918C4.99089 32.6836 5.11458 32.4622 5.25781 32.2539C5.40104 32.0456 5.52474 31.8307 5.62891 31.6094C5.88932 31.1016 6.13021 30.5742 6.35156 30.0273C6.58594 29.4805 6.8724 28.9401 7.21094 28.4062C7.27604 28.3021 7.32812 28.2305 7.36719 28.1914C7.40625 28.1393 7.45182 28.0156 7.50391 27.8203C7.52995 27.7031 7.60807 27.5664 7.73828 27.4102C7.88151 27.2409 7.95312 27.0846 7.95312 26.9414C7.95312 26.9023 7.94661 26.8633 7.93359 26.8242C7.93359 26.7852 7.93359 26.7461 7.93359 26.707C7.93359 26.7201 7.97266 26.6354 8.05078 26.4531C8.14193 26.2708 8.2526 26.043 8.38281 25.7695C8.52604 25.4961 8.66927 25.2031 8.8125 24.8906C8.96875 24.5651 9.11849 24.2786 9.26172 24.0312V23.9922C9.26172 23.9661 9.25521 23.9336 9.24219 23.8945C9.24219 23.8424 9.24219 23.8034 9.24219 23.7773C9.24219 23.7643 9.2487 23.7513 9.26172 23.7383C9.35286 23.6732 9.39844 23.5625 9.39844 23.4062C9.41146 23.237 9.46354 23.0547 9.55469 22.8594C9.58073 22.7943 9.64583 22.7292 9.75 22.6641C9.86719 22.5859 9.95182 22.5078 10.0039 22.4297C10.056 22.3125 10.0755 22.2083 10.0625 22.1172C10.0625 22.026 10.0885 21.9349 10.1406 21.8438C10.1797 21.7656 10.2643 21.6094 10.3945 21.375C10.5247 21.1406 10.668 20.8737 10.8242 20.5742C10.9805 20.2617 11.1302 19.9362 11.2734 19.5977C11.4167 19.2591 11.5208 18.9401 11.5859 18.6406C11.4948 18.5755 11.4232 18.543 11.3711 18.543C11.293 18.543 11.2148 18.569 11.1367 18.6211C11.0586 18.6732 10.974 18.7383 10.8828 18.8164C10.7917 18.8815 10.7005 18.9401 10.6094 18.9922C10.5182 19.0443 10.4271 19.0703 10.3359 19.0703C10.2708 19.0703 10.1862 19.0443 10.082 18.9922C9.99089 18.9401 9.94531 18.849 9.94531 18.7188C9.94531 18.6406 9.97135 18.569 10.0234 18.5039C10.0885 18.4388 10.1602 18.3802 10.2383 18.3281C10.3164 18.263 10.388 18.1979 10.4531 18.1328C10.5182 18.0677 10.5573 17.9896 10.5703 17.8984C10.5833 17.7682 10.668 17.6445 10.8242 17.5273C10.9805 17.4102 11.1497 17.306 11.332 17.2148C11.5143 17.1237 11.6771 17.0456 11.8203 16.9805C11.9635 16.9154 12.0352 16.8698 12.0352 16.8438C12.0352 16.8177 12.0286 16.7917 12.0156 16.7656C12.0156 16.7266 12.0156 16.6875 12.0156 16.6484C12.0156 16.5833 12.0807 16.5378 12.2109 16.5117C12.3542 16.4727 12.4909 16.401 12.6211 16.2969C12.7383 16.1927 12.849 16.082 12.9531 15.9648C13.0573 15.8346 13.1419 15.75 13.207 15.7109C13.3503 15.6458 13.4935 15.6263 13.6367 15.6523C13.793 15.6654 13.9362 15.6393 14.0664 15.5742C14.1445 15.5352 14.2096 15.4505 14.2617 15.3203C14.3268 15.1901 14.4505 15.125 14.6328 15.125C14.8151 15.125 14.9388 15.138 15.0039 15.1641C15.082 15.1901 15.1276 15.2357 15.1406 15.3008C15.1667 15.3529 15.1797 15.431 15.1797 15.5352C15.1797 15.6263 15.1992 15.737 15.2383 15.8672C15.2513 15.9062 15.2839 15.9714 15.3359 16.0625C15.401 16.1406 15.4661 16.2253 15.5312 16.3164C15.5964 16.4076 15.6549 16.5052 15.707 16.6094C15.7721 16.7135 15.8112 16.8047 15.8242 16.8828C15.8503 17.0391 15.8633 17.2474 15.8633 17.5078C15.8763 17.7552 15.8828 18.0221 15.8828 18.3086C15.8828 18.582 15.8828 18.8555 15.8828 19.1289C15.8958 19.3893 15.9219 19.6107 15.9609 19.793C16 20.0143 16.0391 20.2096 16.0781 20.3789C16.1172 20.5352 16.1367 20.7174 16.1367 20.9258C16.1367 21.082 16.1172 21.1927 16.0781 21.2578C16.0391 21.3099 16.0195 21.362 16.0195 21.4141C16.0195 21.4401 16.0391 21.5508 16.0781 21.7461C16.1172 21.9414 16.1758 22.1693 16.2539 22.4297C16.3971 22.7292 16.5078 23.0677 16.5859 23.4453C16.6641 23.8099 16.7227 24.1875 16.7617 24.5781C16.8138 24.9688 16.8529 25.3594 16.8789 25.75C16.918 26.1276 16.957 26.4792 16.9961 26.8047C17.0221 27.026 17.0742 27.2409 17.1523 27.4492C17.2305 27.6445 17.276 27.8464 17.2891 28.0547C17.2891 28.1458 17.2826 28.237 17.2695 28.3281C17.2565 28.4062 17.25 28.4844 17.25 28.5625C17.25 28.7318 17.2956 28.9076 17.3867 29.0898C17.4909 29.2591 17.556 29.4219 17.582 29.5781C17.6211 29.9557 17.6341 30.3659 17.6211 30.8086C17.6081 31.2383 17.6406 31.6484 17.7188 32.0391C17.7578 32.2344 17.8164 32.4232 17.8945 32.6055C17.9857 32.7747 18.0312 32.9766 18.0312 33.2109C18.0312 33.3411 18.0247 33.4714 18.0117 33.6016C17.9987 33.7318 17.9922 33.8555 17.9922 33.9727C17.9922 34.0898 17.9987 34.1745 18.0117 34.2266C18.0117 34.2656 18.0378 34.3633 18.0898 34.5195C18.1419 34.6628 18.2005 34.8255 18.2656 35.0078C18.3438 35.1771 18.4089 35.3333 18.4609 35.4766C18.526 35.6198 18.5716 35.6979 18.5977 35.7109C18.6888 35.776 18.8385 35.8086 19.0469 35.8086C19.2552 35.8086 19.4766 35.7826 19.7109 35.7305C19.9583 35.6784 20.1732 35.6523 20.3555 35.6523C20.5768 35.6523 20.7201 35.7174 20.7852 35.8477ZM14.5156 29.2852C14.5547 29.2331 14.5742 29.168 14.5742 29.0898C14.5742 28.9596 14.5417 28.8359 14.4766 28.7188C14.4115 28.5885 14.3789 28.5299 14.3789 28.543C14.3789 28.5169 14.3984 28.4909 14.4375 28.4648C14.4896 28.4388 14.5156 28.3737 14.5156 28.2695C14.4896 28.0742 14.4375 27.8789 14.3594 27.6836C14.2943 27.4753 14.2487 27.2799 14.2227 27.0977C14.1315 26.5638 14.0534 26.043 13.9883 25.5352C13.9362 25.0273 13.8646 24.6237 13.7734 24.3242V23.8945C13.7474 23.6732 13.7214 23.3997 13.6953 23.0742C13.6693 22.7487 13.6367 22.4102 13.5977 22.0586C13.5586 21.694 13.513 21.3359 13.4609 20.9844C13.4219 20.6198 13.3698 20.3008 13.3047 20.0273C13.2526 19.7409 13.194 19.513 13.1289 19.3438C13.0638 19.1615 12.9987 19.0703 12.9336 19.0703H12.8945C12.7253 19.2917 12.582 19.5326 12.4648 19.793C12.3477 20.0404 12.2305 20.3008 12.1133 20.5742C12.0091 20.8346 11.9049 21.1016 11.8008 21.375C11.6966 21.6354 11.5794 21.8893 11.4492 22.1367C11.2279 22.5534 10.9805 22.9635 10.707 23.3672C10.4466 23.7708 10.2122 24.1875 10.0039 24.6172C9.78255 25.0599 9.58073 25.5221 9.39844 26.0039C9.22917 26.4727 9.04036 26.9349 8.83203 27.3906C8.61068 27.8464 8.3763 28.2956 8.12891 28.7383C7.88151 29.181 7.72526 29.6562 7.66016 30.1641C8.51953 30.1641 9.38542 30.0924 10.2578 29.9492C11.1432 29.806 11.9766 29.6823 12.7578 29.5781C12.9271 29.5521 13.1029 29.5391 13.2852 29.5391C13.4674 29.5391 13.6367 29.5391 13.793 29.5391C13.9492 29.526 14.0859 29.5065 14.2031 29.4805C14.3333 29.4414 14.4375 29.3763 14.5156 29.2852ZM41.3711 3.23047V3.21094C41.1497 3.67969 40.9674 4.05078 40.8242 4.32422C40.694 4.59766 40.5703 4.82552 40.4531 5.00781C40.3359 5.17708 40.2253 5.32682 40.1211 5.45703C40.0169 5.58724 39.8867 5.75 39.7305 5.94531C39.6523 5.97135 39.5156 6.07552 39.3203 6.25781C39.125 6.4401 38.9167 6.64193 38.6953 6.86328C38.474 7.08464 38.2656 7.28646 38.0703 7.46875C37.875 7.65104 37.7383 7.75521 37.6602 7.78125C37.6211 7.89844 37.5365 8.01562 37.4062 8.13281C37.2891 8.25 37.1458 8.36068 36.9766 8.46484C36.8073 8.56901 36.6315 8.67969 36.4492 8.79688C36.2669 8.90104 36.0977 9.00521 35.9414 9.10938C35.681 9.29167 35.4596 9.44792 35.2773 9.57812C35.1081 9.69531 34.9388 9.80599 34.7695 9.91016C34.6003 10.0143 34.418 10.112 34.2227 10.2031C34.0273 10.2812 33.7799 10.3659 33.4805 10.457C32.9336 10.6263 32.3216 10.7695 31.6445 10.8867C30.9674 11.0039 30.3164 11.0625 29.6914 11.0625C29.2878 11.0625 28.8841 11.043 28.4805 11.0039C28.0768 10.9518 27.7708 10.8737 27.5625 10.7695C27.4844 10.8477 27.4453 10.8997 27.4453 10.9258C27.4453 10.9779 27.4779 11.0234 27.543 11.0625C27.6081 11.0885 27.6602 11.1341 27.6992 11.1992C27.7513 11.2773 27.7969 11.375 27.8359 11.4922C27.875 11.6094 27.9271 11.707 27.9922 11.7852C28.1224 11.9544 28.2721 12.1042 28.4414 12.2344C28.6237 12.3646 28.7669 12.5078 28.8711 12.6641C28.9362 12.7422 28.9818 12.8594 29.0078 13.0156C29.0469 13.1589 29.099 13.2826 29.1641 13.3867C29.2292 13.5039 29.3008 13.6081 29.3789 13.6992C29.4701 13.7773 29.5482 13.8685 29.6133 13.9727C29.8607 14.4154 30.0755 14.8255 30.2578 15.2031C30.4401 15.5807 30.6615 15.9974 30.9219 16.4531C30.974 16.5573 31.0456 16.6549 31.1367 16.7461C31.2279 16.8372 31.2995 16.9349 31.3516 17.0391C31.3906 17.1432 31.4102 17.2604 31.4102 17.3906C31.4232 17.5208 31.4557 17.6445 31.5078 17.7617C31.6641 18.2044 31.8333 18.6667 32.0156 19.1484C32.2109 19.6172 32.3802 20.0794 32.5234 20.5352C32.5885 20.7826 32.6341 21.0495 32.6602 21.3359C32.6992 21.6224 32.7513 21.8893 32.8164 22.1367C32.9336 22.6055 33.0443 23.0156 33.1484 23.3672C33.2526 23.7188 33.3047 24.1419 33.3047 24.6367C33.3047 24.8581 33.2982 25.0794 33.2852 25.3008C33.2721 25.5221 33.2591 25.737 33.2461 25.9453C33.2201 26.1406 33.1549 26.3359 33.0508 26.5312C32.9596 26.7266 32.9206 26.9349 32.9336 27.1562C32.9336 27.2604 32.9401 27.3646 32.9531 27.4688C32.9661 27.5599 32.9727 27.651 32.9727 27.7422C32.9727 28.0156 32.9336 28.2956 32.8555 28.582C32.7773 28.8555 32.6862 29.1419 32.582 29.4414C32.4779 29.7279 32.3672 30.0208 32.25 30.3203C32.1328 30.6068 32.0286 30.8932 31.9375 31.1797C31.8854 31.362 31.8008 31.5638 31.6836 31.7852C31.5794 32.0065 31.4688 32.2214 31.3516 32.4297C31.2344 32.638 31.1302 32.8268 31.0391 32.9961C30.9609 33.1654 30.9219 33.2891 30.9219 33.3672C30.9219 33.4323 30.8893 33.4844 30.8242 33.5234C30.7721 33.5495 30.7005 33.5755 30.6094 33.6016C30.5312 33.6276 30.4466 33.6602 30.3555 33.6992C30.2773 33.7253 30.2188 33.7643 30.1797 33.8164C30.0495 33.9987 29.9518 34.2266 29.8867 34.5C29.8346 34.7604 29.7435 35.0143 29.6133 35.2617C29.6003 35.2747 29.5547 35.3268 29.4766 35.418C29.3984 35.4961 29.3138 35.5938 29.2227 35.7109C29.1315 35.8151 29.0469 35.9193 28.9688 36.0234C28.9036 36.1276 28.8711 36.2122 28.8711 36.2773C28.8711 36.3424 28.8385 36.3945 28.7734 36.4336C28.7083 36.4596 28.6237 36.4922 28.5195 36.5312C28.4284 36.5703 28.3177 36.6159 28.1875 36.668C28.0703 36.7201 27.9596 36.7917 27.8555 36.8828C27.8034 36.9219 27.7578 36.9805 27.7188 37.0586C27.6797 37.1497 27.6276 37.2344 27.5625 37.3125C27.5104 37.3906 27.4453 37.4622 27.3672 37.5273C27.2891 37.5924 27.1914 37.625 27.0742 37.625C27.0091 37.625 26.931 37.6185 26.8398 37.6055C26.7617 37.5924 26.6901 37.5859 26.625 37.5859C26.5208 37.5859 26.4362 37.638 26.3711 37.7422C26.306 37.8464 26.2214 37.8984 26.1172 37.8984C26 37.8984 25.9154 37.8789 25.8633 37.8398C25.8242 37.8138 25.7852 37.7747 25.7461 37.7227C25.7201 37.6836 25.694 37.638 25.668 37.5859C25.6419 37.5339 25.5898 37.4883 25.5117 37.4492C25.3685 37.3841 25.1992 37.3516 25.0039 37.3516C24.8086 37.3516 24.6849 37.3385 24.6328 37.3125C24.5547 37.2474 24.457 37.0911 24.3398 36.8438C24.2357 36.5964 24.099 36.362 23.9297 36.1406C23.8255 36.0234 23.7279 35.9258 23.6367 35.8477C23.5586 35.7695 23.4805 35.6979 23.4023 35.6328C23.3242 35.5547 23.2526 35.4701 23.1875 35.3789C23.1354 35.2747 23.0898 35.138 23.0508 34.9688C23.0247 34.8646 22.9727 34.793 22.8945 34.7539C22.8294 34.7148 22.7839 34.6432 22.7578 34.5391C22.6667 34.2917 22.6081 34.0768 22.582 33.8945C22.556 33.7122 22.5104 33.4844 22.4453 33.2109C22.4453 33.1589 22.4258 33.0807 22.3867 32.9766C22.3607 32.8594 22.3281 32.7422 22.2891 32.625C22.263 32.4948 22.237 32.3711 22.2109 32.2539C22.1849 32.1237 22.1719 32.0195 22.1719 31.9414C22.1719 31.5768 22.1914 31.2122 22.2305 30.8477C22.2826 30.4831 22.3086 30.1445 22.3086 29.832C22.3086 29.6628 22.3151 29.5 22.3281 29.3438C22.3411 29.1875 22.3802 29.0182 22.4453 28.8359C22.4714 28.7969 22.5234 28.7253 22.6016 28.6211C22.6797 28.5169 22.7318 28.4453 22.7578 28.4062C22.849 28.0807 22.9466 27.7812 23.0508 27.5078C23.1549 27.2214 23.2786 26.9284 23.4219 26.6289C23.5651 26.3164 23.7344 25.9714 23.9297 25.5938C24.125 25.2031 24.3594 24.7344 24.6328 24.1875C24.6589 24.1354 24.6784 24.0638 24.6914 23.9727C24.7174 23.8685 24.75 23.7969 24.7891 23.7578C24.8021 23.7448 24.8346 23.7253 24.8867 23.6992C24.9518 23.6732 25.0169 23.6471 25.082 23.6211C25.1602 23.582 25.2253 23.5495 25.2773 23.5234C25.3424 23.4844 25.375 23.4453 25.375 23.4062C25.375 23.3802 25.3685 23.3477 25.3555 23.3086C25.3555 23.2695 25.3555 23.237 25.3555 23.2109C25.3555 23.2109 25.4141 23.1458 25.5312 23.0156C25.6484 22.8854 25.7852 22.7357 25.9414 22.5664C26.0977 22.3841 26.2539 22.2083 26.4102 22.0391C26.5794 21.8698 26.7161 21.7591 26.8203 21.707C26.9245 21.6549 27.0286 21.6354 27.1328 21.6484C27.237 21.6484 27.3346 21.6224 27.4258 21.5703C27.543 21.4792 27.6471 21.349 27.7383 21.1797C27.8294 21.0104 27.9141 20.8932 27.9922 20.8281C28.1094 20.724 28.2526 20.6133 28.4219 20.4961C28.5911 20.3789 28.7474 20.2617 28.8906 20.1445C29.0469 20.0273 29.1771 19.9232 29.2812 19.832C29.3984 19.7279 29.457 19.6432 29.457 19.5781C29.457 19.4089 29.3984 19.207 29.2812 18.9727C29.1641 18.7383 29.0273 18.5104 28.8711 18.2891C28.7279 18.0677 28.5977 17.8724 28.4805 17.7031C28.3633 17.5208 28.3047 17.3971 28.3047 17.332C28.2917 17.2409 28.2461 17.1432 28.168 17.0391C28.0898 16.9349 28.0052 16.8307 27.9141 16.7266C27.8229 16.6094 27.7383 16.5052 27.6602 16.4141C27.5951 16.3229 27.5625 16.2383 27.5625 16.1602C27.5625 16.082 27.5234 15.9909 27.4453 15.8867C27.3672 15.7695 27.2826 15.6523 27.1914 15.5352C27.1003 15.418 27.0156 15.3073 26.9375 15.2031C26.8594 15.099 26.8203 15.0143 26.8203 14.9492C26.8203 14.6888 26.6706 14.3893 26.3711 14.0508C26.0846 13.6992 25.7526 13.2891 25.375 12.8203C25.362 12.8073 25.3555 12.7878 25.3555 12.7617C25.3555 12.7357 25.3555 12.7031 25.3555 12.6641C25.3685 12.625 25.375 12.5924 25.375 12.5664C25.375 12.5013 25.2969 12.3971 25.1406 12.2539C24.9974 12.1107 24.8346 11.9544 24.6523 11.7852C24.4701 11.6159 24.3008 11.4531 24.1445 11.2969C24.0013 11.1276 23.9297 10.9974 23.9297 10.9062C23.9167 10.7891 23.806 10.6458 23.5977 10.4766C23.4023 10.3073 23.1875 10.1315 22.9531 9.94922C22.7188 9.75391 22.5039 9.5651 22.3086 9.38281C22.1133 9.1875 22.0156 9.01823 22.0156 8.875C22.0547 8.6276 22.1263 8.48438 22.2305 8.44531C22.3477 8.40625 22.5234 8.35417 22.7578 8.28906C22.8359 8.27604 22.9401 8.23698 23.0703 8.17188C23.2005 8.10677 23.3372 8.04167 23.4805 7.97656C23.6237 7.89844 23.7734 7.83333 23.9297 7.78125C24.0859 7.72917 24.2292 7.70312 24.3594 7.70312C24.5807 7.70312 24.8216 7.7487 25.082 7.83984C25.3555 7.91797 25.5964 8.01562 25.8047 8.13281C25.8438 8.15885 25.8958 8.21745 25.9609 8.30859C26.026 8.38672 26.0781 8.43229 26.1172 8.44531C26.2995 8.51042 26.5078 8.53646 26.7422 8.52344C26.9766 8.4974 27.2044 8.51693 27.4258 8.58203C27.5169 8.60807 27.5951 8.66667 27.6602 8.75781C27.7253 8.84896 27.8099 8.89453 27.9141 8.89453C27.9401 8.89453 27.9661 8.89453 27.9922 8.89453C28.0312 8.88151 28.0638 8.875 28.0898 8.875C28.1419 8.875 28.2656 8.89453 28.4609 8.93359C28.6562 8.95964 28.8841 8.99219 29.1445 9.03125C29.418 9.07031 29.6979 9.10938 29.9844 9.14844C30.2839 9.17448 30.5508 9.1875 30.7852 9.1875C31.1107 9.1875 31.4948 9.15495 31.9375 9.08984C32.3802 9.02474 32.8229 8.9401 33.2656 8.83594C33.7083 8.71875 34.1185 8.58203 34.4961 8.42578C34.8867 8.26953 35.1862 8.10026 35.3945 7.91797C35.4987 7.82682 35.5898 7.72266 35.668 7.60547C35.7461 7.48828 35.8438 7.3776 35.9609 7.27344C36.1432 7.10417 36.3385 6.96745 36.5469 6.86328C36.7682 6.74609 36.9896 6.58984 37.2109 6.39453C37.5495 6.09505 37.9336 5.74349 38.3633 5.33984C38.806 4.92318 39.1901 4.51953 39.5156 4.12891C39.5938 4.03776 39.6979 3.90755 39.8281 3.73828C39.9583 3.55599 40.0885 3.35417 40.2188 3.13281C40.349 2.89844 40.4727 2.65755 40.5898 2.41016C40.707 2.14974 40.7982 1.90234 40.8633 1.66797C40.8893 1.40755 40.9479 1.20573 41.0391 1.0625C41.1432 0.90625 41.2474 0.828125 41.3516 0.828125C41.5599 0.828125 41.6641 1.05599 41.6641 1.51172C41.6641 1.51172 41.651 1.60286 41.625 1.78516C41.599 1.95443 41.5664 2.14974 41.5273 2.37109C41.5013 2.57943 41.4688 2.77474 41.4297 2.95703C41.4036 3.13932 41.3841 3.23047 41.3711 3.23047ZM31.0586 25.0664C31.0586 24.9492 31.0456 24.8646 31.0195 24.8125C31.0065 24.7474 30.9805 24.6888 30.9414 24.6367C30.9154 24.5716 30.8828 24.4935 30.8438 24.4023C30.8177 24.3112 30.7917 24.1875 30.7656 24.0312C30.7135 23.7708 30.694 23.5104 30.707 23.25C30.7201 22.9766 30.694 22.7031 30.6289 22.4297C30.5378 22.0781 30.4336 21.7721 30.3164 21.5117C30.1992 21.2383 30.1276 21.1016 30.1016 21.1016C29.9193 21.1016 29.776 21.1471 29.6719 21.2383C29.5677 21.3294 29.4961 21.388 29.457 21.4141C29.3398 21.4792 29.1966 21.5378 29.0273 21.5898C28.8711 21.6419 28.7214 21.7266 28.5781 21.8438C28.4219 21.987 28.2201 22.1953 27.9727 22.4688C27.7253 22.7292 27.4844 23.0026 27.25 23.2891C27.0156 23.5625 26.8138 23.8099 26.6445 24.0312C26.4753 24.2396 26.3841 24.3503 26.3711 24.3633C26.1758 24.8711 26.0391 25.2357 25.9609 25.457C25.8958 25.6784 25.8503 25.8477 25.8242 25.9648C25.7982 26.082 25.7786 26.1927 25.7656 26.2969C25.7656 26.388 25.7331 26.5573 25.668 26.8047C25.6419 26.9089 25.5833 27.013 25.4922 27.1172C25.401 27.2083 25.3555 27.3255 25.3555 27.4688C25.3555 27.5599 25.362 27.6445 25.375 27.7227C25.388 27.8008 25.3945 27.8789 25.3945 27.957C25.3945 28.0872 25.3685 28.2109 25.3164 28.3281C25.2773 28.4323 25.2318 28.5365 25.1797 28.6406C25.1276 28.7448 25.0755 28.849 25.0234 28.9531C24.9844 29.0573 24.9648 29.168 24.9648 29.2852C24.9648 29.4674 24.9779 29.7018 25.0039 29.9883C25.043 30.2747 25.082 30.5742 25.1211 30.8867C25.1602 31.1862 25.1992 31.4727 25.2383 31.7461C25.2904 32.0195 25.3359 32.2214 25.375 32.3516C25.375 32.3906 25.3685 32.4297 25.3555 32.4688C25.3555 32.4948 25.3555 32.5273 25.3555 32.5664C25.3555 32.6185 25.3945 32.6966 25.4727 32.8008C25.5638 32.8919 25.6289 32.9831 25.668 33.0742C25.7852 33.4128 25.9284 33.7253 26.0977 34.0117C26.2669 34.2852 26.4362 34.526 26.6055 34.7344C26.7878 34.9427 26.9635 35.1055 27.1328 35.2227C27.3021 35.3398 27.4453 35.3984 27.5625 35.3984C27.6536 35.3984 27.7773 35.3138 27.9336 35.1445C28.1029 34.9622 28.2786 34.7474 28.4609 34.5C28.6562 34.2396 28.8385 33.9727 29.0078 33.6992C29.1901 33.4128 29.3398 33.1589 29.457 32.9375C29.6393 32.612 29.8216 32.2409 30.0039 31.8242C30.1862 31.4076 30.2969 30.9974 30.3359 30.5938C30.3359 30.5156 30.3555 30.457 30.3945 30.418C30.4336 30.3789 30.4661 30.3464 30.4922 30.3203C30.5573 30.0599 30.5898 29.832 30.5898 29.6367C30.5898 29.4284 30.6029 29.2135 30.6289 28.9922C30.6419 28.7057 30.6745 28.3932 30.7266 28.0547C30.7786 27.7031 30.8242 27.3516 30.8633 27C30.9154 26.6484 30.9609 26.3099 31 25.9844C31.0391 25.6458 31.0586 25.3398 31.0586 25.0664ZM45.6289 23.1719C45.6029 23.6667 45.5312 24.1159 45.4141 24.5195C45.3099 24.9232 45.1732 25.2943 45.0039 25.6328C44.8477 25.9714 44.6719 26.2839 44.4766 26.5703C44.2812 26.8568 44.0794 27.1367 43.8711 27.4102C43.7409 27.5794 43.6367 27.7292 43.5586 27.8594C43.4805 27.9766 43.4023 28.0807 43.3242 28.1719C43.2461 28.263 43.1615 28.3411 43.0703 28.4062C42.9792 28.4714 42.8555 28.5234 42.6992 28.5625C42.5951 28.5885 42.4714 28.6211 42.3281 28.6602C42.1979 28.6862 42.0807 28.7513 41.9766 28.8555C41.9505 28.8815 41.9245 28.9336 41.8984 29.0117C41.8724 29.0768 41.8464 29.1224 41.8203 29.1484C41.7161 29.2266 41.5924 29.2786 41.4492 29.3047C41.319 29.3177 41.2018 29.3633 41.0977 29.4414C40.9935 29.5326 40.9219 29.6107 40.8828 29.6758C40.8438 29.7409 40.7721 29.806 40.668 29.8711C40.5638 29.9362 40.4401 29.9883 40.2969 30.0273C40.1667 30.0534 40.043 30.099 39.9258 30.1641C39.8346 30.2292 39.763 30.3073 39.7109 30.3984C39.6719 30.4766 39.6003 30.5482 39.4961 30.6133C39.2878 30.7565 39.112 30.8672 38.9688 30.9453C38.8255 31.0104 38.7083 31.1081 38.6172 31.2383C38.5391 31.3685 38.4805 31.5573 38.4414 31.8047C38.4023 32.0521 38.3828 32.4297 38.3828 32.9375C38.3828 33.237 38.3893 33.5234 38.4023 33.7969C38.4284 34.0703 38.4544 34.2721 38.4805 34.4023C38.4935 34.4414 38.5326 34.5326 38.5977 34.6758C38.6758 34.806 38.7669 34.9492 38.8711 35.1055C38.9883 35.2617 39.1185 35.4049 39.2617 35.5352C39.4049 35.6523 39.5547 35.7109 39.7109 35.7109C39.9453 35.7109 40.1536 35.6263 40.3359 35.457C40.5182 35.2747 40.7201 35.1185 40.9414 34.9883C41.1107 34.8841 41.332 34.7474 41.6055 34.5781C41.8789 34.3958 42.1003 34.194 42.2695 33.9727C42.3216 33.8945 42.3867 33.7904 42.4648 33.6602C42.543 33.5169 42.6276 33.3802 42.7188 33.25C42.8229 33.1068 42.9336 32.9896 43.0508 32.8984C43.181 32.7943 43.3242 32.7422 43.4805 32.7422C43.5456 32.7422 43.6302 32.7617 43.7344 32.8008C43.7214 33.0221 43.6497 33.224 43.5195 33.4062C43.4023 33.5885 43.2656 33.7578 43.1094 33.9141C42.9661 34.0573 42.8359 34.1875 42.7188 34.3047C42.6016 34.4219 42.543 34.5195 42.543 34.5977C42.543 34.6237 42.543 34.6628 42.543 34.7148C42.556 34.7539 42.5625 34.7865 42.5625 34.8125C42.5625 34.8776 42.4844 34.9297 42.3281 34.9688C42.1849 34.9948 42.0677 35.0469 41.9766 35.125C41.9115 35.1901 41.8594 35.2682 41.8203 35.3594C41.7943 35.4375 41.7487 35.5026 41.6836 35.5547C41.5404 35.6719 41.3906 35.776 41.2344 35.8672C41.0781 35.9583 40.9349 36.056 40.8047 36.1602C40.6615 36.2904 40.5117 36.4401 40.3555 36.6094C40.2122 36.7786 40.069 36.9349 39.9258 37.0781C39.7826 37.2344 39.6393 37.3646 39.4961 37.4688C39.3659 37.5729 39.2422 37.625 39.125 37.625C39.0599 37.625 38.9883 37.612 38.9102 37.5859C38.8451 37.5729 38.7799 37.5664 38.7148 37.5664C38.6497 37.5664 38.5977 37.5924 38.5586 37.6445C38.5195 37.6966 38.4674 37.7227 38.4023 37.7227C38.2852 37.7227 38.1484 37.6641 37.9922 37.5469C37.8359 37.4427 37.7057 37.3646 37.6016 37.3125C37.4193 37.2474 37.2044 37.2018 36.957 37.1758C36.7096 37.1628 36.5339 37.1172 36.4297 37.0391C36.3385 36.9609 36.2669 36.8177 36.2148 36.6094C36.1758 36.401 36.1042 36.1992 36 36.0039C35.8958 35.8216 35.7786 35.6719 35.6484 35.5547C35.5182 35.4375 35.4401 35.3464 35.4141 35.2812C35.388 35.2031 35.3685 35.099 35.3555 34.9688C35.3555 34.8255 35.3555 34.6823 35.3555 34.5391C35.3555 34.3828 35.349 34.2331 35.3359 34.0898C35.3229 33.9336 35.2969 33.7969 35.2578 33.6797C35.2448 33.6406 35.2188 33.6081 35.1797 33.582C35.1406 33.543 35.1211 33.4714 35.1211 33.3672C35.1211 33.3802 35.1406 33.3542 35.1797 33.2891C35.2318 33.2109 35.2578 33.1458 35.2578 33.0938C35.3229 32.0651 35.4141 31.0885 35.5312 30.1641C35.6615 29.2266 35.8242 28.3737 36.0195 27.6055C36.2148 26.8242 36.4492 26.1471 36.7227 25.5742C37.0091 24.9883 37.3477 24.526 37.7383 24.1875C37.8034 24.1354 37.875 24.1159 37.9531 24.1289C38.0443 24.1289 38.1224 24.1029 38.1875 24.0508C38.2135 24.0247 38.2331 23.9792 38.2461 23.9141C38.2721 23.8359 38.2982 23.7839 38.3242 23.7578C38.3893 23.7057 38.4609 23.6797 38.5391 23.6797C38.6302 23.6797 38.7018 23.6536 38.7539 23.6016C38.793 23.5755 38.8451 23.5234 38.9102 23.4453C38.9753 23.3672 39.0404 23.2826 39.1055 23.1914C39.1706 23.1003 39.2357 23.0156 39.3008 22.9375C39.3659 22.8464 39.431 22.7812 39.4961 22.7422C39.6523 22.638 39.8411 22.5664 40.0625 22.5273C40.2839 22.4883 40.4857 22.4102 40.668 22.293C40.7201 22.2669 40.7786 22.2148 40.8438 22.1367C40.9089 22.0586 40.974 21.9805 41.0391 21.9023C41.1172 21.8112 41.1888 21.7331 41.2539 21.668C41.319 21.6029 41.3841 21.5703 41.4492 21.5703C41.4753 21.5703 41.5078 21.5768 41.5469 21.5898C41.5859 21.5898 41.6185 21.5898 41.6445 21.5898C41.6706 21.5898 41.7682 21.5117 41.9375 21.3555C42.1198 21.1992 42.2826 21.0755 42.4258 20.9844C42.4648 20.9583 42.4844 20.9128 42.4844 20.8477C42.4974 20.7695 42.5234 20.7174 42.5625 20.6914C42.6276 20.6393 42.7318 20.6003 42.875 20.5742C43.0182 20.5352 43.1549 20.4766 43.2852 20.3984C43.3893 20.3333 43.4674 20.2682 43.5195 20.2031C43.5716 20.138 43.6888 20.1055 43.8711 20.1055C44.3398 20.1445 44.6979 20.2292 44.9453 20.3594C45.1927 20.4896 45.362 20.6784 45.4531 20.9258C45.5573 21.1602 45.6094 21.4661 45.6094 21.8438C45.6224 22.2083 45.6289 22.651 45.6289 23.1719ZM42.8555 23.1719C42.8424 23.1458 42.7904 23.1003 42.6992 23.0352C42.6211 22.957 42.5755 22.9049 42.5625 22.8789C42.5234 22.8138 42.5039 22.7487 42.5039 22.6836C42.5039 22.6055 42.4974 22.5339 42.4844 22.4688C42.4714 22.4036 42.4453 22.3516 42.4062 22.3125C42.3802 22.2734 42.3216 22.2539 42.2305 22.2539C42.1523 22.2539 42.0352 22.2995 41.8789 22.3906C41.7357 22.4688 41.5794 22.5664 41.4102 22.6836C41.2539 22.8008 41.1042 22.918 40.9609 23.0352C40.8177 23.1523 40.7201 23.2435 40.668 23.3086C40.6029 23.3867 40.5117 23.5299 40.3945 23.7383C40.2904 23.9336 40.1797 24.1354 40.0625 24.3438C39.9583 24.5521 39.8607 24.7344 39.7695 24.8906C39.6784 25.0469 39.6263 25.125 39.6133 25.125C39.6133 25.151 39.6133 25.1836 39.6133 25.2227C39.6263 25.2617 39.6328 25.2943 39.6328 25.3203C39.6328 25.3984 39.5807 25.4701 39.4766 25.5352C39.3724 25.5872 39.3203 25.6979 39.3203 25.8672C39.3203 25.9323 39.3268 26.0104 39.3398 26.1016C39.3529 26.1797 39.3594 26.2513 39.3594 26.3164C39.3594 26.4206 39.3138 26.5247 39.2227 26.6289C39.1445 26.7331 39.0924 26.8438 39.0664 26.9609C38.9492 27.3776 38.832 27.8268 38.7148 28.3086C38.5977 28.7773 38.5391 29.2396 38.5391 29.6953C38.5391 29.8385 38.5521 29.9622 38.5781 30.0664C38.6172 30.1576 38.7214 30.2031 38.8906 30.2031C39.0078 30.2031 39.0924 30.1836 39.1445 30.1445C39.2096 30.0924 39.2617 30.0339 39.3008 29.9688C39.3398 29.8906 39.3724 29.819 39.3984 29.7539C39.4245 29.6888 39.457 29.6367 39.4961 29.5977C39.6654 29.4414 39.8607 29.2786 40.082 29.1094C40.3034 28.9401 40.5247 28.7643 40.7461 28.582C40.9805 28.3867 41.2018 28.1914 41.4102 27.9961C41.6315 27.8008 41.8203 27.6055 41.9766 27.4102C42.0156 27.3451 42.0547 27.2409 42.0938 27.0977C42.1328 26.9414 42.1914 26.7982 42.2695 26.668C42.4648 26.3294 42.6146 25.8932 42.7188 25.3594C42.8359 24.8255 42.8945 24.2396 42.8945 23.6016C42.8945 23.5365 42.888 23.4648 42.875 23.3867C42.875 23.3086 42.8685 23.237 42.8555 23.1719ZM56.918 24.7148C56.918 24.9883 56.9115 25.2227 56.8984 25.418C56.8854 25.6133 56.8659 25.7956 56.8398 25.9648C56.8268 26.1341 56.8008 26.3034 56.7617 26.4727C56.7227 26.6419 56.6771 26.8307 56.625 27.0391C56.5208 27.4948 56.4297 27.9505 56.3516 28.4062C56.2734 28.849 56.1758 29.3177 56.0586 29.8125C56.0456 29.8646 56.0065 29.9427 55.9414 30.0469C55.8893 30.151 55.8307 30.2682 55.7656 30.3984C55.7005 30.5286 55.6354 30.6589 55.5703 30.7891C55.5182 30.9193 55.4792 31.0299 55.4531 31.1211C55.388 31.3815 55.2839 31.5964 55.1406 31.7656C55.0104 31.9349 54.8737 32.1562 54.7305 32.4297C54.6654 32.5729 54.6198 32.7357 54.5938 32.918C54.5677 33.0872 54.5156 33.2174 54.4375 33.3086C54.4115 33.3477 54.3398 33.4128 54.2227 33.5039C54.1185 33.5951 53.9948 33.6992 53.8516 33.8164C53.7214 33.9336 53.5846 34.0508 53.4414 34.168C53.3112 34.2852 53.207 34.3893 53.1289 34.4805C53.0768 34.5456 53.0247 34.6237 52.9727 34.7148C52.9336 34.806 52.888 34.8776 52.8359 34.9297C52.7708 34.9688 52.6927 34.9883 52.6016 34.9883C52.5234 34.9883 52.4518 35.0143 52.3867 35.0664C52.3607 35.1055 52.3346 35.1706 52.3086 35.2617C52.2956 35.3398 52.263 35.3789 52.2109 35.3789C52.1849 35.3789 52.1458 35.3789 52.0938 35.3789C52.0547 35.3659 52.0221 35.3594 51.9961 35.3594C51.944 35.3594 51.8268 35.431 51.6445 35.5742C51.4622 35.7044 51.2604 35.8542 51.0391 36.0234C50.8307 36.1927 50.6289 36.3555 50.4336 36.5117C50.2513 36.668 50.1276 36.7656 50.0625 36.8047C49.9714 36.8698 49.8737 36.9219 49.7695 36.9609C49.6784 37 49.5872 37.0521 49.4961 37.1172C49.3789 37.1693 49.2878 37.2279 49.2227 37.293C49.1576 37.3711 49.0924 37.4362 49.0273 37.4883C48.9622 37.5534 48.8906 37.6055 48.8125 37.6445C48.7344 37.6836 48.6237 37.7031 48.4805 37.7031C48.4414 37.7031 48.3633 37.6771 48.2461 37.625C48.1289 37.5729 48.0117 37.5013 47.8945 37.4102C47.7773 37.332 47.6667 37.2344 47.5625 37.1172C47.4714 37 47.4258 36.8763 47.4258 36.7461C47.4258 36.707 47.4323 36.668 47.4453 36.6289C47.4583 36.5768 47.4648 36.5247 47.4648 36.4727C47.4648 36.4336 47.4583 36.401 47.4453 36.375C47.2891 36.0495 47.1133 35.7435 46.918 35.457C46.7357 35.1576 46.6445 34.806 46.6445 34.4023C46.6445 34.2591 46.6641 34.1159 46.7031 33.9727C46.7422 33.8164 46.7617 33.6081 46.7617 33.3477C46.7617 33.0221 46.7422 32.651 46.7031 32.2344C46.6641 31.8047 46.6445 31.3815 46.6445 30.9648C46.6445 30.5742 46.7031 30.138 46.8203 29.6562C46.9375 29.1745 47.0938 28.6927 47.2891 28.2109C47.4844 27.7161 47.7057 27.2409 47.9531 26.7852C48.2135 26.3294 48.4805 25.9323 48.7539 25.5938C48.9492 25.3464 49.1576 25.112 49.3789 24.8906C49.6003 24.6693 49.8281 24.4414 50.0625 24.207C50.3099 23.9727 50.5573 23.7318 50.8047 23.4844C51.0521 23.237 51.293 22.9635 51.5273 22.6641C51.6706 22.4818 51.8594 22.293 52.0938 22.0977C52.3411 21.9023 52.5885 21.7005 52.8359 21.4922C52.901 21.4531 52.9727 21.4336 53.0508 21.4336C53.1289 21.4336 53.2005 21.4076 53.2656 21.3555C53.3958 21.2643 53.5065 21.1667 53.5977 21.0625C53.6888 20.9583 53.7669 20.8607 53.832 20.7695C53.8971 20.6784 53.9622 20.6068 54.0273 20.5547C54.0924 20.4896 54.1641 20.457 54.2422 20.457C54.3073 20.457 54.3659 20.4635 54.418 20.4766C54.4831 20.4896 54.5482 20.4961 54.6133 20.4961C54.6914 20.4961 54.75 20.4766 54.7891 20.4375C54.8281 20.3854 54.8672 20.3333 54.9062 20.2812C54.9453 20.2161 54.9909 20.1641 55.043 20.125C55.1081 20.0729 55.1992 20.0469 55.3164 20.0469C55.5638 20.0859 55.7396 20.151 55.8438 20.2422C55.9609 20.3203 56.0391 20.4245 56.0781 20.5547C56.1172 20.6849 56.1497 20.8411 56.1758 21.0234C56.2018 21.2057 56.2539 21.4141 56.332 21.6484L56.625 22.6641C56.6771 22.8464 56.7357 23.0221 56.8008 23.1914C56.8659 23.3607 56.9049 23.5169 56.918 23.6602C56.918 23.7773 56.8919 23.862 56.8398 23.9141C56.7878 23.9531 56.7617 24.0247 56.7617 24.1289C56.7617 24.194 56.7878 24.2786 56.8398 24.3828C56.8919 24.474 56.918 24.5846 56.918 24.7148ZM54.0078 27.4883C54.0078 27.2799 53.9883 27.0521 53.9492 26.8047C53.9232 26.5573 53.8971 26.2969 53.8711 26.0234C53.8451 25.6849 53.8255 25.3268 53.8125 24.9492C53.8125 24.5716 53.7995 24.2201 53.7734 23.8945C53.7474 23.569 53.7083 23.3021 53.6562 23.0938C53.6172 22.8854 53.5456 22.7812 53.4414 22.7812C53.2982 22.7812 53.0768 22.8594 52.7773 23.0156C52.4909 23.1719 52.2174 23.3477 51.957 23.543C51.8919 23.6081 51.8268 23.7188 51.7617 23.875C51.6966 24.0182 51.6185 24.1549 51.5273 24.2852C51.2018 24.7279 50.9284 25.138 50.707 25.5156C50.4987 25.8932 50.3229 26.2773 50.1797 26.668C50.0365 27.0586 49.9128 27.4753 49.8086 27.918C49.7044 28.3477 49.6003 28.8359 49.4961 29.3828C49.418 29.7995 49.3398 30.1576 49.2617 30.457C49.1836 30.7565 49.1445 31.1016 49.1445 31.4922C49.1445 32.638 49.2617 33.5234 49.4961 34.1484C49.7435 34.7734 50.0365 35.0859 50.375 35.0859C50.5833 35.0859 50.7331 35.0273 50.8242 34.9102C50.9284 34.7799 51.013 34.6823 51.0781 34.6172C51.1432 34.5781 51.2148 34.5586 51.293 34.5586C51.3841 34.5586 51.4622 34.5326 51.5273 34.4805C51.8008 34.2331 52.0091 33.9401 52.1523 33.6016C52.2956 33.263 52.4258 32.9245 52.543 32.5859H52.6602C52.6992 32.5859 52.7188 32.5729 52.7188 32.5469C52.7188 32.5208 52.7122 32.4883 52.6992 32.4492C52.6992 32.3971 52.6992 32.3581 52.6992 32.332C52.6992 32.2409 52.7188 32.1432 52.7578 32.0391C52.8099 31.9349 52.8685 31.8372 52.9336 31.7461C52.9987 31.6549 53.0638 31.5703 53.1289 31.4922C53.194 31.401 53.2396 31.3294 53.2656 31.2773C53.3828 31.056 53.4609 30.8542 53.5 30.6719C53.5521 30.4766 53.5846 30.2878 53.5977 30.1055C53.6237 29.9102 53.6367 29.7214 53.6367 29.5391C53.6497 29.3438 53.6758 29.1419 53.7148 28.9336C53.7539 28.6341 53.806 28.3672 53.8711 28.1328C53.9362 27.8984 53.9818 27.6836 54.0078 27.4883ZM65.9414 31.8633C65.9154 32.0326 65.8828 32.2018 65.8438 32.3711C65.8177 32.5404 65.7526 32.7096 65.6484 32.8789C65.5833 32.9961 65.4857 33.1003 65.3555 33.1914C65.2253 33.2695 65.1276 33.3607 65.0625 33.4648C64.9844 33.569 64.9128 33.6927 64.8477 33.8359C64.7826 33.9661 64.7109 34.0833 64.6328 34.1875C64.5026 34.3568 64.3529 34.5195 64.1836 34.6758C64.0273 34.819 63.8841 35.0013 63.7539 35.2227C63.5977 35.4831 63.4219 35.724 63.2266 35.9453C63.0443 36.1667 62.7839 36.4531 62.4453 36.8047C62.3411 36.9219 62.2565 37.0651 62.1914 37.2344C62.1263 37.4036 62.0612 37.5078 61.9961 37.5469C61.931 37.599 61.8333 37.625 61.7031 37.625C61.5859 37.638 61.4948 37.6576 61.4297 37.6836C61.4297 37.6836 61.3971 37.7031 61.332 37.7422C61.2799 37.7812 61.2148 37.8203 61.1367 37.8594C61.0716 37.9115 60.9935 37.9505 60.9023 37.9766C60.8242 38.0156 60.7526 38.0352 60.6875 38.0352C60.4141 38.0352 60.2057 37.9635 60.0625 37.8203C59.9193 37.6771 59.8151 37.4688 59.75 37.1953C59.6979 36.9219 59.6654 36.5833 59.6523 36.1797C59.6523 35.776 59.6523 35.3138 59.6523 34.793C59.6523 34.5456 59.6589 34.3372 59.6719 34.168C59.6979 33.9857 59.724 33.8229 59.75 33.6797C59.7891 33.5234 59.8216 33.3737 59.8477 33.2305C59.8867 33.0872 59.9258 32.9245 59.9648 32.7422C60.043 32.3255 60.0885 31.9023 60.1016 31.4727C60.1276 31.043 60.1797 30.5872 60.2578 30.1055C60.2839 29.9232 60.3294 29.7344 60.3945 29.5391C60.4727 29.3438 60.5247 29.1419 60.5508 28.9336C60.6419 28.1654 60.6875 27.3776 60.6875 26.5703C60.7005 25.763 60.7526 24.9492 60.8438 24.1289C60.8828 23.6992 60.9414 23.263 61.0195 22.8203C61.1107 22.3646 61.1953 21.9219 61.2734 21.4922C61.3776 20.9323 61.4688 20.3333 61.5469 19.6953C61.638 19.0443 61.7227 18.3867 61.8008 17.7227C61.8919 17.0586 61.9766 16.3945 62.0547 15.7305C62.1328 15.0534 62.2109 14.4023 62.2891 13.7773C62.3151 13.556 62.3672 13.3346 62.4453 13.1133C62.5365 12.8789 62.582 12.651 62.582 12.4297C62.582 12.1562 62.4844 11.9219 62.2891 11.7266C62.0807 11.7656 61.9375 11.8698 61.8594 12.0391C61.7943 12.1953 61.6966 12.3385 61.5664 12.4688C61.3841 12.651 61.2148 12.8073 61.0586 12.9375C60.9023 13.0677 60.7331 13.25 60.5508 13.4844C60.4987 13.5495 60.4466 13.6341 60.3945 13.7383C60.3424 13.8424 60.2773 13.9466 60.1992 14.0508C60.1341 14.1419 60.0495 14.2201 59.9453 14.2852C59.8411 14.3503 59.7109 14.3828 59.5547 14.3828C59.4245 14.3828 59.3464 14.3503 59.3203 14.2852C59.2943 14.207 59.2812 14.1289 59.2812 14.0508C59.2812 13.9336 59.3138 13.8229 59.3789 13.7188C59.457 13.6016 59.5417 13.4909 59.6328 13.3867C59.737 13.2695 59.8477 13.1589 59.9648 13.0547C60.082 12.9505 60.1797 12.8464 60.2578 12.7422C60.4661 12.4948 60.6615 12.2409 60.8438 11.9805C61.0391 11.707 61.2344 11.4792 61.4297 11.2969C61.5729 11.1536 61.7552 11.0169 61.9766 10.8867C62.1979 10.7565 62.4062 10.6003 62.6016 10.418C62.7839 10.2487 62.9271 10.0404 63.0312 9.79297C63.1484 9.54557 63.2917 9.36328 63.4609 9.24609C63.513 9.20703 63.5781 9.1875 63.6562 9.1875C63.7474 9.17448 63.832 9.16146 63.9102 9.14844C64.0013 9.1224 64.0859 9.08984 64.1641 9.05078C64.2422 8.9987 64.3008 8.92057 64.3398 8.81641C64.5352 8.81641 64.7044 8.86849 64.8477 8.97266C64.9909 9.0638 65.1081 9.17448 65.1992 9.30469C65.3034 9.42188 65.3815 9.53255 65.4336 9.63672C65.4857 9.74089 65.5117 9.79948 65.5117 9.8125C65.5117 9.95573 65.4661 10.1185 65.375 10.3008C65.2969 10.4701 65.2448 10.6589 65.2188 10.8672C65.1927 11.0755 65.1732 11.2969 65.1602 11.5312C65.1471 11.7526 65.1276 12.0065 65.1016 12.293C65.0885 12.5794 65.056 12.9049 65.0039 13.2695C64.9518 13.6211 64.8802 14.0312 64.7891 14.5C64.737 14.7474 64.6523 14.9818 64.5352 15.2031C64.431 15.4245 64.3659 15.6263 64.3398 15.8086C64.2617 16.3685 64.2227 16.974 64.2227 17.625C64.2227 18.263 64.1641 18.875 64.0469 19.4609C64.0078 19.6562 63.9492 19.8385 63.8711 20.0078C63.793 20.1641 63.7539 20.3333 63.7539 20.5156C63.7539 20.5677 63.7539 20.6393 63.7539 20.7305C63.7669 20.8086 63.7734 20.8802 63.7734 20.9453C63.7734 21.0365 63.7474 21.1016 63.6953 21.1406C63.6562 21.1667 63.6367 21.1927 63.6367 21.2188C63.6367 21.2578 63.6562 21.2969 63.6953 21.3359C63.7344 21.362 63.7539 21.4271 63.7539 21.5312C63.7539 21.8307 63.6888 22.1302 63.5586 22.4297C63.4284 22.7161 63.3438 22.9896 63.3047 23.25C63.2135 23.901 63.168 24.5651 63.168 25.2422C63.181 25.9193 63.1354 26.5703 63.0312 27.1953C63.0052 27.3385 62.9531 27.4818 62.875 27.625C62.7969 27.7682 62.7513 27.9115 62.7383 28.0547C62.7122 28.4583 62.6862 28.8945 62.6602 29.3633C62.6471 29.832 62.6276 30.2747 62.6016 30.6914C62.5625 30.9648 62.5104 31.2708 62.4453 31.6094C62.3802 31.9479 62.3151 32.2995 62.25 32.6641C62.1979 33.0156 62.1458 33.3672 62.0938 33.7188C62.0547 34.0703 62.0352 34.3958 62.0352 34.6953C62.0352 34.9036 62.0482 35.0599 62.0742 35.1641C62.1003 35.2682 62.1328 35.3464 62.1719 35.3984C62.224 35.4375 62.2695 35.4635 62.3086 35.4766C62.3607 35.4766 62.4062 35.4766 62.4453 35.4766C62.5365 35.4766 62.6211 35.444 62.6992 35.3789C62.7773 35.3138 62.849 35.2357 62.9141 35.1445C62.9922 35.0534 63.0573 34.9622 63.1094 34.8711C63.1745 34.7669 63.2396 34.6823 63.3047 34.6172C63.7474 34.2266 64.0794 33.8685 64.3008 33.543C64.5221 33.2044 64.7044 32.9115 64.8477 32.6641C64.9909 32.4167 65.1276 32.2214 65.2578 32.0781C65.388 31.9349 65.5898 31.8633 65.8633 31.8633H65.9414ZM80.1016 31.8633C80.1927 31.9544 80.2383 32.0586 80.2383 32.1758C80.2383 32.3711 80.1797 32.5469 80.0625 32.7031C79.9453 32.8464 79.7956 32.9896 79.6133 33.1328C79.444 33.263 79.2552 33.3997 79.0469 33.543C78.8516 33.6862 78.6693 33.8555 78.5 34.0508C78.2786 34.3112 78.0182 34.6107 77.7188 34.9492C77.4323 35.2747 77.2044 35.6068 77.0352 35.9453C77.0091 36.0104 76.9245 36.1341 76.7812 36.3164C76.651 36.4987 76.4883 36.694 76.293 36.9023C76.1107 37.1107 75.9023 37.293 75.668 37.4492C75.4466 37.6055 75.2318 37.6836 75.0234 37.6836C74.8802 37.6836 74.737 37.6576 74.5938 37.6055C74.4635 37.5664 74.3398 37.5078 74.2227 37.4297C74.1055 37.3646 74.0078 37.2865 73.9297 37.1953C73.8646 37.1172 73.832 37.0391 73.832 36.9609C73.832 36.8438 73.8776 36.7266 73.9688 36.6094C74.0729 36.4922 74.125 36.3099 74.125 36.0625C74.125 35.9974 74.112 35.9518 74.0859 35.9258C74.0729 35.8997 74.0534 35.8672 74.0273 35.8281C74.0143 35.7891 74.0013 35.737 73.9883 35.6719C73.9753 35.6068 73.9688 35.5026 73.9688 35.3594C73.9688 35.2161 73.9883 35.0664 74.0273 34.9102C74.0794 34.7409 74.1315 34.5716 74.1836 34.4023C74.2487 34.2201 74.3008 34.0443 74.3398 33.875C74.3919 33.6927 74.418 33.5169 74.418 33.3477C74.418 33.3086 74.4115 33.2695 74.3984 33.2305C74.3984 33.1784 74.3984 33.1328 74.3984 33.0938C74.3984 33.0156 74.418 32.8984 74.457 32.7422C74.4961 32.5859 74.5417 32.4167 74.5938 32.2344C74.6458 32.0521 74.6914 31.8568 74.7305 31.6484C74.7695 31.4271 74.7891 31.2188 74.7891 31.0234C74.7891 30.776 74.763 30.5677 74.7109 30.3984C74.5677 30.4505 74.444 30.5286 74.3398 30.6328C74.2357 30.724 74.138 30.8346 74.0469 30.9648C73.9688 31.082 73.8841 31.2122 73.793 31.3555C73.7148 31.4857 73.6302 31.6094 73.5391 31.7266C73.487 31.7917 73.3958 31.8763 73.2656 31.9805C73.1354 32.0846 72.9987 32.1953 72.8555 32.3125C72.7253 32.4297 72.6081 32.5469 72.5039 32.6641C72.3997 32.7682 72.3477 32.8529 72.3477 32.918C72.3477 32.944 72.3542 32.9766 72.3672 33.0156C72.3802 33.0547 72.3867 33.0872 72.3867 33.1133C72.3867 33.1523 72.3542 33.2109 72.2891 33.2891C72.224 33.3672 72.1523 33.4518 72.0742 33.543C72.0091 33.6211 71.944 33.6992 71.8789 33.7773C71.8138 33.8424 71.7812 33.888 71.7812 33.9141C71.7682 34.0573 71.6576 34.194 71.4492 34.3242C71.2409 34.4414 71.0586 34.5911 70.9023 34.7734C70.7852 34.9036 70.6875 35.0404 70.6094 35.1836C70.5312 35.3268 70.4596 35.457 70.3945 35.5742C70.3294 35.6914 70.2643 35.7891 70.1992 35.8672C70.1341 35.9323 70.056 35.9648 69.9648 35.9648C69.9388 35.9648 69.8932 35.9583 69.8281 35.9453C69.776 35.9323 69.7305 35.9258 69.6914 35.9258C69.6003 35.9258 69.5417 35.9844 69.5156 36.1016C69.5026 36.2188 69.4831 36.3099 69.457 36.375C69.3529 36.5443 69.2292 36.6745 69.0859 36.7656C68.9557 36.8438 68.7865 36.9609 68.5781 37.1172C68.487 37.1823 68.4219 37.2539 68.3828 37.332C68.3568 37.4232 68.3177 37.5013 68.2656 37.5664C68.2135 37.6315 68.1289 37.6836 68.0117 37.7227C67.9076 37.7747 67.7383 37.8008 67.5039 37.8008C67.3737 37.8008 67.25 37.7878 67.1328 37.7617C67.0156 37.7357 66.957 37.6966 66.957 37.6445C66.957 37.6185 66.9635 37.5859 66.9766 37.5469C66.9896 37.5078 66.9961 37.4753 66.9961 37.4492C66.9961 37.4362 66.9701 37.4102 66.918 37.3711C66.8659 37.332 66.8008 37.2734 66.7227 37.1953C66.6576 37.1302 66.599 37.0391 66.5469 36.9219C66.4948 36.7917 66.4688 36.6354 66.4688 36.4531C66.4688 36.2448 66.4883 36.0299 66.5273 35.8086C66.5794 35.5742 66.6315 35.3464 66.6836 35.125C66.7487 34.9036 66.8073 34.6953 66.8594 34.5C66.9115 34.2917 66.9505 34.0964 66.9766 33.9141C67.0286 33.4844 67.0547 33.0482 67.0547 32.6055C67.0547 32.1628 67.1263 31.7656 67.2695 31.4141C67.3346 31.2839 67.4062 31.1081 67.4844 30.8867C67.5625 30.6654 67.6341 30.4049 67.6992 30.1055C67.7122 30.0273 67.7318 29.9167 67.7578 29.7734C67.7839 29.6172 67.8164 29.4479 67.8555 29.2656C67.8945 29.0833 67.9336 28.901 67.9727 28.7188C68.0247 28.5234 68.0833 28.3542 68.1484 28.2109C68.1745 28.1719 68.2201 28.1263 68.2852 28.0742C68.3633 28.0091 68.4154 27.957 68.4414 27.918C68.4674 27.8398 68.4805 27.7552 68.4805 27.6641C68.4935 27.5599 68.526 27.4557 68.5781 27.3516C68.6042 27.2995 68.6562 27.2474 68.7344 27.1953C68.8125 27.1302 68.8581 27.0781 68.8711 27.0391C68.9362 26.9219 68.9818 26.7786 69.0078 26.6094C69.0339 26.4401 69.0859 26.2969 69.1641 26.1797C69.2161 26.1016 69.3073 26.0365 69.4375 25.9844C69.5677 25.9193 69.6719 25.8346 69.75 25.7305C69.8151 25.6393 69.8607 25.5417 69.8867 25.4375C69.9258 25.3333 69.9714 25.2422 70.0234 25.1641C70.1667 25.0078 70.2839 24.8711 70.375 24.7539C70.4792 24.6237 70.5703 24.5065 70.6484 24.4023C70.7396 24.2982 70.8242 24.2005 70.9023 24.1094C70.9805 24.0182 71.0781 23.9271 71.1953 23.8359C71.2734 23.7839 71.3646 23.6862 71.4688 23.543C71.5859 23.3997 71.6901 23.3021 71.7812 23.25C71.8854 23.2109 71.9766 23.1784 72.0547 23.1523C72.1458 23.1263 72.25 23.0677 72.3672 22.9766C72.3932 22.9505 72.4193 22.8984 72.4453 22.8203C72.4714 22.7292 72.4974 22.6771 72.5234 22.6641C72.6146 22.625 72.6992 22.5924 72.7773 22.5664C72.8685 22.5404 72.9727 22.4753 73.0898 22.3711C73.2331 22.2409 73.3438 22.1107 73.4219 21.9805C73.5 21.8503 73.5911 21.7396 73.6953 21.6484C73.7995 21.5703 73.9167 21.5182 74.0469 21.4922C74.1771 21.4661 74.2943 21.4206 74.3984 21.3555C74.5938 21.2513 74.7891 21.1146 74.9844 20.9453C75.1927 20.763 75.4076 20.5872 75.6289 20.418C75.8503 20.2357 76.0781 20.0859 76.3125 19.9688C76.5599 19.8385 76.8138 19.7734 77.0742 19.7734C77.2435 19.7734 77.4128 19.7604 77.582 19.7344C77.7643 19.6953 77.9336 19.6758 78.0898 19.6758C78.2331 19.6758 78.3633 19.7018 78.4805 19.7539C78.5977 19.806 78.6562 19.9167 78.6562 20.0859C78.6562 20.5807 78.5977 21.1341 78.4805 21.7461C78.3633 22.3581 78.2331 23.0156 78.0898 23.7188C77.9596 24.4219 77.8359 25.1641 77.7188 25.9453C77.6146 26.7266 77.5625 27.5339 77.5625 28.3672C77.5625 28.3932 77.569 28.4323 77.582 28.4844C77.6081 28.5365 77.6211 28.6146 77.6211 28.7188C77.6211 28.7969 77.6016 28.8945 77.5625 29.0117C77.5365 29.1159 77.5039 29.2266 77.4648 29.3438C77.4258 29.4479 77.3867 29.5521 77.3477 29.6562C77.3216 29.7604 77.3086 29.8516 77.3086 29.9297C77.3086 30.0599 77.3086 30.1901 77.3086 30.3203C77.3216 30.4505 77.3281 30.5677 77.3281 30.6719C77.3281 30.8932 77.3021 31.1406 77.25 31.4141C77.1979 31.6875 77.1328 31.974 77.0547 32.2734C76.9896 32.5599 76.931 32.8464 76.8789 33.1328C76.8268 33.4193 76.8008 33.6862 76.8008 33.9336C76.8008 34.0638 76.8073 34.1875 76.8203 34.3047C76.8333 34.4089 76.8594 34.513 76.8984 34.6172C77.0677 34.5391 77.2044 34.4414 77.3086 34.3242C77.4258 34.207 77.5299 34.0768 77.6211 33.9336C77.7253 33.7773 77.8294 33.6146 77.9336 33.4453C78.0378 33.263 78.1745 33.0742 78.3438 32.8789C78.4089 32.8008 78.5 32.6966 78.6172 32.5664C78.7344 32.4362 78.8581 32.3125 78.9883 32.1953C79.1185 32.0781 79.2552 31.974 79.3984 31.8828C79.5417 31.7917 79.6784 31.7461 79.8086 31.7461C79.8997 31.7461 79.9974 31.7852 80.1016 31.8633ZM75.5703 21.8047C75.5312 21.8047 75.4922 21.8047 75.4531 21.8047C75.4141 21.7917 75.3815 21.7852 75.3555 21.7852C75.1602 21.7852 75.0104 21.8438 74.9062 21.9609C74.8151 22.0651 74.737 22.1172 74.6719 22.1172C74.6458 22.1172 74.6133 22.1172 74.5742 22.1172C74.5352 22.1042 74.4961 22.0977 74.457 22.0977C74.3919 22.0977 74.3594 22.1367 74.3594 22.2148C74.3594 22.2799 74.3268 22.332 74.2617 22.3711C74.2096 22.4362 74.138 22.4688 74.0469 22.4688C73.9557 22.4557 73.8841 22.4753 73.832 22.5273C73.7669 22.5924 73.7018 22.6966 73.6367 22.8398C73.5846 22.9701 73.5 23.1068 73.3828 23.25C73.2786 23.3672 73.1484 23.4714 72.9922 23.5625C72.849 23.6536 72.7383 23.7448 72.6602 23.8359C72.6341 23.888 72.6081 23.9661 72.582 24.0703C72.569 24.1615 72.5495 24.2331 72.5234 24.2852C72.4193 24.4674 72.2891 24.6888 72.1328 24.9492C71.9896 25.1966 71.8333 25.457 71.6641 25.7305C71.4948 26.0039 71.3255 26.2708 71.1562 26.5312C71 26.7786 70.8698 27 70.7656 27.1953C70.6615 27.3776 70.5898 27.5924 70.5508 27.8398C70.5117 28.0872 70.4792 28.3477 70.4531 28.6211C70.4401 28.8815 70.4271 29.1354 70.4141 29.3828C70.401 29.6172 70.375 29.8125 70.3359 29.9688C70.0885 30.8281 69.8542 31.694 69.6328 32.5664C69.4245 33.4258 69.3203 34.2591 69.3203 35.0664C69.5938 35.0273 69.8021 34.9232 69.9453 34.7539C70.1016 34.5716 70.2253 34.3698 70.3164 34.1484C70.4076 33.9271 70.4922 33.7122 70.5703 33.5039C70.6484 33.2956 70.7591 33.1393 70.9023 33.0352C71.0065 32.9701 71.1107 32.8789 71.2148 32.7617C71.332 32.6445 71.4297 32.5339 71.5078 32.4297C71.5469 32.3776 71.5664 32.3125 71.5664 32.2344C71.5664 32.1432 71.5924 32.0651 71.6445 32C71.7227 31.9089 71.8138 31.8112 71.918 31.707C72.0352 31.6029 72.1523 31.4987 72.2695 31.3945C72.3867 31.2904 72.4909 31.1927 72.582 31.1016C72.6862 30.9974 72.7643 30.9128 72.8164 30.8477C72.8685 30.7826 72.8945 30.6849 72.8945 30.5547C72.9076 30.4115 72.9271 30.3073 72.9531 30.2422C73.0833 29.9948 73.2266 29.7734 73.3828 29.5781C73.5391 29.3698 73.6888 29.1549 73.832 28.9336C74.0664 28.569 74.2617 28.2109 74.418 27.8594C74.5872 27.5078 74.7305 27.1497 74.8477 26.7852C74.9648 26.4206 75.069 26.0495 75.1602 25.6719C75.2513 25.2812 75.3424 24.8646 75.4336 24.4219C75.4857 24.1615 75.5443 23.8815 75.6094 23.582C75.6875 23.2826 75.7266 22.9766 75.7266 22.6641C75.7266 22.3385 75.6745 22.0521 75.5703 21.8047Z" fill="black"/>
</svg>
